<svg xmlns="http://www.w3.org/2000/svg" viewBox="0 0 100 125" fill="none" x="0px" y="0px"><path d="M46.8729 14.9498L48.6143 14.6596L48.4692 18.4326H48.7595C49.6302 18.2875 50.3557 18.2875 51.3716 18.4326H51.6618L51.5167 14.8047L52.9679 15.0949C53.113 15.0949 53.2581 15.0949 53.4032 14.9498C53.5483 14.8047 53.5483 14.6596 53.5483 14.5145V12.3377C53.5483 12.1926 53.4032 12.0475 53.4032 11.9023C53.2581 11.7572 53.113 11.7572 52.9679 11.7572L51.2265 12.0475L51.3716 9.58047C51.3716 9.43535 51.3716 9.29024 51.2265 9.14512C51.0813 9 50.9362 9 50.7911 9H48.9046C48.7595 9 48.6143 9.14512 48.4692 9.14512C48.3241 9.29024 48.3241 9.43535 48.3241 9.58047L48.6143 12.0475L46.8729 11.7572C46.7278 11.7572 46.5827 11.7572 46.4376 11.9023C46.2925 12.0475 46.2925 12.1926 46.2925 12.3377V14.3693C46.2925 14.5145 46.4376 14.6596 46.4376 14.8047C46.5827 14.9498 46.7278 14.9498 46.8729 14.9498Z" fill="black"/><path d="M38.4561 35.9918C38.6012 36.137 38.8914 36.137 39.1816 36.137C42.6645 35.2663 46.2924 34.8309 50.0655 34.8309C53.8385 34.8309 57.4664 35.2663 60.9493 36.137H61.0944C61.2395 36.137 61.3846 36.137 61.5297 35.9918C61.6748 35.8467 61.82 35.7016 61.82 35.4114C61.82 34.8309 61.82 34.2504 61.82 33.8151C61.82 32.509 61.6748 31.203 61.3846 30.042C61.3846 29.7518 61.0944 29.4616 60.659 29.3164C57.1762 28.1555 53.5483 27.575 49.7752 27.575C46.0022 27.575 42.3742 28.1555 38.8914 29.3164C38.6012 29.4616 38.3109 29.7518 38.1658 30.042C37.8756 31.203 37.7305 32.509 37.7305 33.8151C37.7305 34.3956 37.7305 34.8309 37.7305 35.4114C38.1658 35.7016 38.3109 35.8467 38.4561 35.9918Z" fill="black"/><path d="M40.6329 26.269C43.6803 25.5434 46.8729 25.108 50.0655 25.108C53.2581 25.108 56.3056 25.5434 59.353 26.269C59.4981 26.269 59.7884 26.269 59.9335 26.1239C60.0786 25.9787 60.0786 25.6885 59.9335 25.5434C57.7567 21.7703 54.2739 19.7387 50.0655 19.7387C45.8571 19.7387 42.3743 21.7703 40.1975 25.5434C40.0524 25.6885 40.0524 25.9787 40.1975 26.1239C40.1975 26.1239 40.4877 26.269 40.6329 26.269Z" fill="black"/><path d="M80.1048 44.4087C79.8146 44.6989 79.8146 45.1342 79.9597 45.4245L82.7169 48.7622C83.0071 49.0524 83.4425 49.0524 83.7327 48.9073L89.2472 44.4087C89.3923 44.2635 89.5374 44.1184 89.5374 43.9733C89.5374 43.8282 89.5374 43.6831 89.3923 43.5379L81.8462 34.2504L82.1364 33.9602C82.5718 33.9602 83.1523 33.8151 83.4425 33.5248C84.3132 32.7993 84.4583 31.4932 83.7327 30.4774C83.0071 29.6067 81.7011 29.4616 80.6853 30.1871C80.2499 30.4774 80.1048 30.9127 79.9597 31.4932L67.4796 41.6514C67.3345 40.2002 67.3345 38.4588 67.1893 36.137C67.1893 35.8467 67.1893 35.5565 67.1893 35.2663C67.1893 33.5248 67.0442 29.6067 67.3345 29.0262C68.6405 29.0262 69.9466 31.203 70.3819 32.2188C70.527 32.509 70.6722 32.6541 70.9624 32.6541C71.2526 32.6541 71.5429 32.6541 71.688 32.509L75.0257 30.042C75.3159 29.7518 75.461 29.3164 75.3159 29.0262C74.4452 26.9946 73.2843 25.6885 71.9782 25.2532C70.6722 24.8178 69.8015 25.2532 69.6563 25.2532C69.5112 25.3983 65.3028 28.3006 64.287 29.8969C62.9809 31.9286 62.9809 33.5248 62.9809 39.91C62.9809 41.6514 63.1261 43.5379 63.1261 45.1342L54.8544 51.8096C53.8385 49.1975 53.5483 46.5854 53.4032 45.5696C54.8544 45.4245 56.3055 45.2794 57.6116 44.9891C58.4823 44.844 59.2079 44.2635 59.4981 43.3928C59.7884 42.6672 60.0786 41.6514 60.5139 40.3454C60.6591 40.0551 60.5139 39.7649 60.3688 39.6198C60.2237 39.3295 60.0786 39.1844 59.7884 39.1844C56.5958 38.3137 53.113 37.8784 49.6301 37.8784C46.1473 37.8784 42.6645 38.3137 39.4719 39.1844C39.1817 39.1844 39.0366 39.4747 38.8914 39.6198C38.7463 39.91 38.7463 40.2003 38.7463 40.3454C39.1817 41.6514 39.4719 42.6672 39.7622 43.3928C40.0524 44.2635 40.778 44.6989 41.6487 44.9891C42.9547 45.2794 44.4059 45.4245 45.8571 45.5696C45.712 46.5854 45.4217 49.1975 44.4059 51.8096L36.1342 45.1342C36.2793 43.5379 36.2793 41.6514 36.2793 39.91C36.2793 33.5248 36.2793 31.9286 34.9733 29.8969C33.9575 28.4457 29.7491 25.3983 29.6039 25.2532C29.6039 25.2532 28.5881 24.8178 27.4272 25.2532C26.1211 25.6885 24.9602 26.9946 24.0895 29.0262C23.9444 29.4616 24.0895 29.8969 24.3797 30.042L27.7174 32.509C27.8625 32.6541 28.1528 32.6541 28.443 32.6541C28.7332 32.6541 28.8783 32.3639 29.0235 32.2188C29.6039 31.203 30.7649 29.0262 32.216 29.0262C32.5063 29.4616 32.3612 33.5248 32.3612 35.2663C32.3612 35.5565 32.3612 35.9918 32.3612 36.137C32.3612 38.4588 32.216 40.2002 32.0709 41.6514L19.5908 31.4932C19.4457 31.0578 19.3006 30.6225 18.8652 30.1871C17.9945 29.4616 16.5434 29.6067 15.8178 30.4774C15.0922 31.3481 15.2373 32.7993 16.108 33.5248C16.5434 33.8151 16.9787 33.9602 17.4141 33.9602L17.7043 34.2504L10.1582 43.5379C9.86797 43.8282 10.0131 44.2635 10.3033 44.5538L15.8178 49.0524C16.108 49.3426 16.5434 49.1975 16.8336 48.9073L19.5908 45.5696C19.736 45.4245 19.736 45.2794 19.736 45.1342C19.736 44.9891 19.5908 44.844 19.4457 44.6989L17.4141 42.9575C17.4141 42.9575 17.4141 42.9575 17.4141 42.8124C17.4141 42.6672 17.4141 42.6672 17.4141 42.6672L18.575 41.2161C18.575 41.2161 18.575 41.2161 18.7201 41.2161H18.8652L20.8969 42.9575C21.042 43.1026 21.1871 43.1026 21.3322 43.1026C21.4774 43.1026 21.6225 42.9575 21.7676 42.8124L23.509 40.7807C23.509 40.6356 23.6541 40.6356 23.7992 40.7807L25.2504 41.9417C25.3955 41.9417 25.3955 42.0868 25.2504 42.2319L23.509 44.2635C23.3639 44.4086 23.3639 44.5538 23.3639 44.6989C23.3639 44.844 23.509 44.9891 23.6541 45.1342L25.6858 46.8756C25.6858 46.8756 25.6858 46.8756 25.6858 47.0208C25.6858 47.1659 25.6858 47.1659 25.6858 47.1659L24.5248 48.6171C24.5248 48.6171 24.5248 48.6171 24.3797 48.6171H24.2346L22.4932 46.7305C22.2029 46.4403 21.7676 46.5854 21.4774 46.8756L18.7201 50.2133C18.575 50.3585 18.575 50.5036 18.575 50.6487C18.575 50.7938 18.7201 50.9389 18.8652 51.0841L24.3797 55.4376C24.5248 55.5827 24.6699 55.5827 24.8151 55.5827C24.9602 55.5827 25.1053 55.4376 25.2504 55.2925L31.7807 47.311C31.7807 47.8915 31.7807 48.4719 31.7807 49.0524C31.7807 52.3901 33.2319 56.018 35.4086 58.0497C39.1817 61.5325 42.2292 60.3716 44.551 58.7753C45.1315 58.485 45.5669 58.0497 46.0022 57.4692L46.5827 57.9046L35.6989 65.886C35.4086 66.0311 35.1184 66.0311 34.9733 65.886C31.2002 63.1288 26.1211 62.8386 22.0578 65.1604C22.0578 64.7251 21.7676 64.4349 21.6225 64.1446C20.8969 63.1288 19.4457 62.9837 18.4299 63.8544C17.9945 64.2897 17.7043 64.7251 17.5592 65.3056C17.5592 65.886 17.7043 66.4665 17.9945 66.9019C18.2848 67.1921 18.575 67.4823 18.8652 67.6274C15.5275 71.4005 14.802 76.7698 17.269 81.2685C16.9787 81.4136 16.6885 81.4136 16.5434 81.7038C15.5275 82.4294 15.3824 83.8806 16.2531 84.8964C16.6885 85.3318 17.1238 85.622 17.7043 85.7671C18.2848 85.7671 18.8652 85.622 19.3006 85.3318C19.4457 85.1866 19.736 84.8964 19.736 84.7513C23.509 88.2341 29.3137 88.8146 33.8123 86.3476C33.8123 86.7829 34.1026 87.0732 34.2477 87.3634C34.9733 88.3792 36.4245 88.5243 37.4403 87.6536C37.8756 87.2183 38.1659 86.7829 38.311 86.2025C38.311 85.622 38.1659 85.0415 37.8756 84.6062C37.5854 84.3159 37.2952 84.0257 37.0049 83.8806C40.0524 80.3978 40.9231 75.4638 39.0366 71.1103C38.8915 70.82 39.0366 70.5298 39.1817 70.3847L49.7753 60.952L60.3688 70.3847C60.5139 70.5298 60.6591 70.82 60.5139 71.1103C58.6274 75.4638 59.4981 80.3978 62.5456 83.8806C62.2554 84.0257 61.9651 84.3159 61.6749 84.6062C61.2395 85.0415 61.0944 85.622 61.2395 86.2025C61.3846 86.7829 61.5298 87.3634 62.1102 87.6536C62.5456 87.9439 62.9809 88.089 63.5614 88.089C64.1419 88.089 64.8675 87.7988 65.3028 87.2183C65.5931 86.928 65.7382 86.6378 65.7382 86.2025C70.2368 88.8146 75.8964 88.089 79.8146 84.6062C79.9597 84.8964 80.1048 85.0415 80.2499 85.1867C80.6853 85.622 81.2657 85.7671 81.8462 85.622C82.4267 85.622 83.0071 85.3318 83.2974 84.7513C83.7327 84.3159 83.8778 83.7355 83.7327 83.155C83.5876 82.5745 83.4425 81.9941 82.862 81.7038C82.5718 81.5587 82.4267 81.4136 82.1364 81.2685C84.4583 76.7698 83.8778 71.4005 80.5401 67.6274C80.8304 67.4823 81.2657 67.1921 81.4109 66.9019C82.1364 65.886 81.9913 64.58 81.1206 63.7093C80.6853 63.2739 80.1048 63.1288 79.5243 63.2739C78.9439 63.2739 78.3634 63.5641 78.0732 64.1446C77.7829 64.4349 77.6378 64.7251 77.6378 65.1604C73.5745 62.8386 68.4954 63.1288 64.7223 65.886C64.4321 66.0311 64.1419 66.0311 63.9968 65.886L53.113 57.9046L53.6934 57.4692C54.1288 58.0497 54.7092 58.485 55.1446 58.7753C57.6116 60.3716 60.5139 61.5325 64.287 58.0497C66.4638 56.018 67.9149 52.3901 67.9149 49.0524C67.9149 48.4719 67.9149 47.8915 67.9149 47.311L74.4452 55.2925C74.5903 55.4376 74.7355 55.5827 74.8806 55.5827C75.0257 55.5827 75.1708 55.5827 75.3159 55.4376L80.8304 51.0841C81.1206 50.7938 81.1206 50.3585 80.9755 50.0682L78.2183 46.7305C77.928 46.4403 77.4927 46.4403 77.2024 46.5854L75.1708 48.4719H74.8806L73.7196 47.0208C73.7196 46.8756 73.7196 46.8756 73.7196 46.7305L75.7513 44.9891C76.0415 44.6989 76.0415 44.2635 75.8964 43.9733L74.155 41.9417C74.155 41.7965 74.155 41.7965 74.155 41.6514L75.6062 40.4905H75.8964L77.6378 42.5221C77.7829 42.6672 77.928 42.8124 78.0732 42.8124C78.2183 42.8124 78.3634 42.8124 78.5085 42.6672L80.5401 40.9258C80.6853 40.9258 80.6853 40.9258 80.8304 40.9258L81.9913 42.377C81.9913 42.5221 81.9913 42.5221 81.9913 42.6672L80.1048 44.4087ZM62.9809 57.3241C62.9809 57.3241 62.8358 57.4692 62.5456 57.4692C61.5298 57.6143 58.7725 56.8888 57.0311 54.8571L63.5614 49.4878C63.7065 52.5352 63.7065 55.8729 62.9809 57.3241ZM63.5614 75.754C63.5614 71.1103 67.3345 67.4823 71.8331 67.4823C76.4769 67.4823 80.1048 71.2554 80.1048 75.754C80.1048 80.2527 76.3317 84.0257 71.8331 84.0257C67.1893 84.1708 63.5614 80.3978 63.5614 75.754ZM49.9204 45.7147C50.0655 47.4561 50.3557 51.0841 51.6618 54.2766L50.646 55.1473L49.9204 55.7278L49.1948 55.1473L48.179 54.2766C49.485 51.0841 49.9204 47.4561 49.9204 45.7147ZM42.8096 54.8571C41.0682 56.8888 38.311 57.4692 37.2952 57.4692C37.0049 57.4692 36.8598 57.3241 36.8598 57.3241C36.1342 55.8729 36.1342 52.6803 36.1342 49.4878L42.8096 54.8571ZM36.4245 75.754C36.4245 80.3978 32.6514 84.0257 28.1528 84.0257C23.509 84.0257 19.8811 80.2527 19.8811 75.754C19.8811 71.2554 23.6541 67.4823 28.1528 67.4823C32.6514 67.4823 36.4245 71.2554 36.4245 75.754Z" fill="black"/><text x="0" y="115" fill="#000000" font-size="5px" font-weight="bold" font-family="'Helvetica Neue', Helvetica, Arial-Unicode, Arial, Sans-serif">Created by GrinnUX</text><text x="0" y="120" fill="#000000" font-size="5px" font-weight="bold" font-family="'Helvetica Neue', Helvetica, Arial-Unicode, Arial, Sans-serif">from the Noun Project</text></svg>